name ./resultDataOpenSim/trcMotMarkerGrf/sub09/grf-13-04.mot
datacolumns 19
datarows 30
range 1.02400000 1.14000000
endheader

                time	     ground_force_vx	     ground_force_vy	     ground_force_vz	     ground_force_px	     ground_force_py	     ground_force_pz	   l_ground_force_vx	   l_ground_force_vy	   l_ground_force_vz	   l_ground_force_px	   l_ground_force_py	   l_ground_force_pz	     ground_torque_x	     ground_torque_y	     ground_torque_z	   l_ground_torque_x	   l_ground_torque_y	   l_ground_torque_z	
          1.02400000	          0.00000000	          0.00000000	          0.00000000	          0.00000000	          0.00000000	          0.00000000	         68.56821881	        616.03989883	          4.43586928	          0.13750162	         -0.05000100	         -0.03114909	          0.00000000	          0.00000000	          0.00000000	          0.00000000	         -7.72582224	          0.00000000	
          1.02800000	          0.00000000	          0.00000000	          0.00000000	          0.00000000	          0.00000000	          0.00000000	         72.54762504	        631.34183791	          6.21590161	          0.13782399	         -0.05000100	         -0.03105678	          0.00000000	          0.00000000	          0.00000000	          0.00000000	         -7.71778240	          0.00000000	
          1.03200000	          0.00000000	          0.00000000	          0.00000000	          0.00000000	          0.00000000	          0.00000000	         77.05259915	        645.48936561	          8.03327352	          0.13817441	         -0.05000100	         -0.03096962	          0.00000000	          0.00000000	          0.00000000	          0.00000000	         -7.70018032	          0.00000000	
          1.03600000	          0.00000000	          0.00000000	          0.00000000	          0.00000000	          0.00000000	          0.00000000	         82.08107538	        658.40589879	          9.88000108	          0.13852195	         -0.05000100	         -0.03089403	          0.00000000	          0.00000000	          0.00000000	          0.00000000	         -7.67741019	          0.00000000	
          1.04000000	          0.00000000	          0.00000000	          0.00000000	          0.00000000	          0.00000000	          0.00000000	         87.57222165	        670.11469572	         11.75246575	          0.13883198	         -0.05000100	         -0.03083363	          0.00000000	          0.00000000	          0.00000000	          0.00000000	         -7.65295058	          0.00000000	
          1.04400000	          0.00000000	          0.00000000	          0.00000000	          0.00000000	          0.00000000	          0.00000000	         93.42074384	        680.74009100	         13.61141409	          0.13909037	         -0.05000100	         -0.03078082	          0.00000000	          0.00000000	          0.00000000	          0.00000000	         -7.62918322	          0.00000000	
          1.04800000	          0.00000000	          0.00000000	          0.00000000	          0.00000000	          0.00000000	          0.00000000	         99.51029716	        690.48139675	         15.38335083	          0.13930475	         -0.05000100	         -0.03072278	          0.00000000	          0.00000000	          0.00000000	          0.00000000	         -7.60725393	          0.00000000	
          1.05200000	          0.00000000	          0.00000000	          0.00000000	          0.00000000	          0.00000000	          0.00000000	        105.73846710	        699.53123712	         16.99359585	          0.13949470	         -0.05000100	         -0.03065403	          0.00000000	          0.00000000	          0.00000000	          0.00000000	         -7.58703312	          0.00000000	
          1.05600000	          0.00000000	          0.00000000	          0.00000000	          0.00000000	          0.00000000	          0.00000000	        112.02434100	        708.01138592	         18.38369861	          0.13969547	         -0.05000100	         -0.03057472	          0.00000000	          0.00000000	          0.00000000	          0.00000000	         -7.56725012	          0.00000000	
          1.06000000	          0.00000000	          0.00000000	          0.00000000	          0.00000000	          0.00000000	          0.00000000	        118.30193912	        715.97473555	         19.50333638	          0.13995167	         -0.05000100	         -0.03047707	          0.00000000	          0.00000000	          0.00000000	          0.00000000	         -7.54579379	          0.00000000	
          1.06400000	          0.00000000	          0.00000000	          0.00000000	          0.00000000	          0.00000000	          0.00000000	        124.50649695	        723.44122597	         20.30778253	          0.14029376	         -0.05000100	         -0.03034342	          0.00000000	          0.00000000	          0.00000000	          0.00000000	         -7.52010680	          0.00000000	
          1.06800000	          0.00000000	          0.00000000	          0.00000000	          0.00000000	          0.00000000	          0.00000000	        130.56274965	        730.42446623	         20.77127290	          0.14073571	         -0.05000100	         -0.03015693	          0.00000000	          0.00000000	          0.00000000	          0.00000000	         -7.48759610	          0.00000000	
          1.07200000	          0.00000000	          0.00000000	          0.00000000	          0.00000000	          0.00000000	          0.00000000	        136.38307369	        736.93116592	         20.89930774	          0.14128613	         -0.05000100	         -0.02991111	          0.00000000	          0.00000000	          0.00000000	          0.00000000	         -7.44599072	          0.00000000	
          1.07600000	          0.00000000	          0.00000000	          0.00000000	          0.00000000	          0.00000000	          0.00000000	        141.88333402	        742.94167380	         20.73013511	          0.14193859	         -0.05000100	         -0.02961682	          0.00000000	          0.00000000	          0.00000000	          0.00000000	         -7.39359519	          0.00000000	
          1.08000000	          0.00000000	          0.00000000	          0.00000000	          0.00000000	          0.00000000	          0.00000000	        147.01062065	        748.40256398	         20.31938144	          0.14266274	         -0.05000100	         -0.02929300	          0.00000000	          0.00000000	          0.00000000	          0.00000000	         -7.32943383	          0.00000000	
          1.08400000	          0.00000000	          0.00000000	          0.00000000	          0.00000000	          0.00000000	          0.00000000	        151.75864369	        753.24024310	         19.71030564	          0.14341510	         -0.05000100	         -0.02895460	          0.00000000	          0.00000000	          0.00000000	          0.00000000	         -7.25327913	          0.00000000	
          1.08800000	          0.00000000	          0.00000000	          0.00000000	          0.00000000	          0.00000000	          0.00000000	        156.16036159	        757.36524801	         18.91107862	          0.14416198	         -0.05000100	         -0.02860401	          0.00000000	          0.00000000	          0.00000000	          0.00000000	         -7.16545939	          0.00000000	
          1.09200000	          0.00000000	          0.00000000	          0.00000000	          0.00000000	          0.00000000	          0.00000000	        160.26451060	        760.64560563	         17.89601734	          0.14488862	         -0.05000100	         -0.02823819	          0.00000000	          0.00000000	          0.00000000	          0.00000000	         -7.06631573	          0.00000000	
          1.09600000	          0.00000000	          0.00000000	          0.00000000	          0.00000000	          0.00000000	          0.00000000	        164.11269375	        762.88881927	         16.63246976	          0.14559042	         -0.05000097	         -0.02786037	          0.00000000	          0.00000000	          0.00000000	          0.00000000	         -6.95539864	          0.00000000	
          1.10000000	          0.00000000	          0.00000000	          0.00000000	          0.00000000	          0.00000000	          0.00000000	        167.73337241	        763.89383296	         15.12495546	          0.14626894	         -0.05000017	         -0.02747765	          0.00000000	          0.00000000	          0.00000000	          0.00000000	         -6.83082598	          0.00000000	
          1.10400000	          0.00000000	          0.00000000	          0.00000000	          0.00000000	          0.00000000	          0.00000000	        171.13614608	        763.52357037	         13.44684298	          0.14693165	         -0.05000001	         -0.02709143	          0.00000000	          0.00000000	          0.00000000	          0.00000000	         -6.68932329	          0.00000000	
          1.10800000	          0.00000000	          0.00000000	          0.00000000	          0.00000000	          0.00000000	          0.00000000	        174.30251099	        761.68795107	         11.71999179	          0.14758440	         -0.05000000	         -0.02669697	          0.00000000	          0.00000000	          0.00000000	          0.00000000	         -6.52711864	          0.00000000	
          1.11200000	          0.00000000	          0.00000000	          0.00000000	          0.00000000	          0.00000000	          0.00000000	        177.20107871	        758.26553819	         10.05541672	          0.14823067	         -0.05000000	         -0.02630898	          0.00000000	          0.00000000	          0.00000000	          0.00000000	         -6.34128399	          0.00000000	
          1.11600000	          0.00000000	          0.00000000	          0.00000000	          0.00000000	          0.00000000	          0.00000000	        179.81027312	        753.07248427	          8.51832533	          0.14886872	         -0.05000000	         -0.02594941	          0.00000000	          0.00000000	          0.00000000	          0.00000000	         -6.13085333	          0.00000000	
          1.12000000	          0.00000000	          0.00000000	          0.00000000	          0.00000000	          0.00000000	          0.00000000	        182.11317621	        745.89598318	          7.13371238	          0.14950176	         -0.05000000	         -0.02562690	          0.00000000	          0.00000000	          0.00000000	          0.00000000	         -5.89732179	          0.00000000	
          1.12400000	          0.00000000	          0.00000000	          0.00000000	          0.00000000	          0.00000000	          0.00000000	        184.08418703	        736.55170859	          5.89565814	          0.15015013	         -0.05000000	         -0.02533313	          0.00000000	          0.00000000	          0.00000000	          0.00000000	         -5.64452925	          0.00000000	
          1.12800000	          0.00000000	          0.00000000	          0.00000000	          0.00000000	          0.00000000	          0.00000000	        185.69038776	        724.93331632	          4.77249142	          0.15085388	         -0.05000000	         -0.02504598	          0.00000000	          0.00000000	          0.00000000	          0.00000000	         -5.37808412	          0.00000000	
          1.13200000	          0.00000000	          0.00000000	          0.00000000	          0.00000000	          0.00000000	          0.00000000	        186.89316998	        711.03005215	          3.72535401	          0.15165781	         -0.04999932	         -0.02474738	          0.00000000	          0.00000000	          0.00000000	          0.00000000	         -5.10451763	          0.00000000	
          1.13600000	          0.00000000	          0.00000000	          0.00000000	          0.00000000	          0.00000000	          0.00000000	        187.65149587	        694.91831232	          2.72665830	          0.15257513	         -0.04999900	         -0.02443483	          0.00000000	          0.00000000	          0.00000000	          0.00000000	         -4.83043936	          0.00000000	
          1.14000000	          0.00000000	          0.00000000	          0.00000000	          0.00000000	          0.00000000	          0.00000000	        187.93225358	        676.73488618	          1.74950698	          0.15355352	         -0.04999900	         -0.02412448	          0.00000000	          0.00000000	          0.00000000	          0.00000000	         -4.56191953	          0.00000000	
